<?xml version="1.0" standalone="no"?>
<!DOCTYPE svg PUBLIC "-//W3C//DTD SVG 20010904//EN"
 "http://www.w3.org/TR/2001/REC-SVG-20010904/DTD/svg10.dtd">
<svg version="1.0" xmlns="http://www.w3.org/2000/svg"
 width="1024.000000pt" height="1024.000000pt" viewBox="0 0 1024.000000 1024.000000"
 preserveAspectRatio="xMidYMid meet">

<g transform="translate(0.000000,1024.000000) scale(0.100000,-0.100000)"
fill="#000000" stroke="none">
<path d="M4905 10229 c-1141 -43 -2245 -478 -3120 -1230 -154 -132 -412 -390
-544 -544 -993 -1156 -1417 -2683 -1165 -4190 150 -899 535 -1729 1137 -2450
129 -154 458 -482 612 -611 526 -437 1098 -753 1735 -959 217 -69 548 -149
708 -171 l52 -7 0 1782 0 1781 -650 0 -650 0 0 745 0 745 649 0 650 0 4 718
c3 616 6 731 21 816 59 348 150 596 301 821 271 405 658 643 1200 736 216 38
665 37 1045 -2 112 -11 408 -48 465 -58 l40 -7 3 -632 2 -632 -312 0 c-495 -1
-605 -14 -778 -97 -79 -38 -109 -59 -176 -127 -65 -65 -89 -98 -122 -166 -83
-175 -91 -256 -92 -892 l0 -478 710 0 c615 0 710 -2 710 -15 0 -21 -219 -1448
-225 -1463 -3 -9 -133 -12 -600 -12 l-595 0 0 -1781 0 -1782 53 7 c184 24 502
104 777 196 735 245 1391 647 1948 1194 687 675 1161 1500 1387 2416 106 431
149 790 148 1245 0 819 -179 1574 -543 2294 -254 504 -551 913 -955 1316 -541
542 -1154 933 -1872 1196 -456 166 -1009 278 -1463 294 -80 3 -181 7 -225 9
-44 1 -165 -1 -270 -5z"/>
</g>
</svg>
